<?xml version="1.0" encoding="iso-8859-1"?>
<svg version="1.1" id="Layer_1" 
  xmlns="http://www.w3.org/2000/svg" 
  xmlns:xlink="http://www.w3.org/1999/xlink" x="0px" y="0px" viewBox="0 0 512 512" style="enable-background:new 0 0 512 512;" xml:space="preserve">
  <g>
    <g>
      <path fill="#ffa400" d="M117.333,213.333C52.651,213.333,0,265.963,0,330.667S52.651,448,117.333,448s117.333-52.629,117.333-117.333
			S182.016,213.333,117.333,213.333z M117.333,426.667c-52.928,0-96-43.072-96-96c0-52.928,43.072-96,96-96
			c52.928,0,96,43.072,96,96S170.261,426.667,117.333,426.667z"/>
    </g>
  </g>
  <g>
    <g>
      <path fill="#ffa400" d="M188.864,280.469c-4.16-4.16-10.923-4.16-15.083,0L96,358.251l-35.136-35.115c-4.16-4.16-10.923-4.16-15.083,0
			c-4.16,4.16-4.16,10.923,0,15.083l42.667,42.667C90.539,382.955,93.269,384,96,384s5.461-1.045,7.531-3.115l85.333-85.333
			C193.024,291.392,193.024,284.629,188.864,280.469z"/>
    </g>
  </g>
  <g>
    <g>
      <path fill="#6c6c6c" d="M458.667,64H160c-29.419,0-53.333,23.936-53.333,53.333v64c0,5.888,4.779,10.667,10.667,10.667S128,187.221,128,181.333
			v-64c0-17.643,14.357-32,32-32h298.667c17.643,0,32,14.357,32,32V288c0,17.643-14.357,32-32,32h-192
			c-5.888,0-10.667,4.779-10.667,10.667s4.779,10.667,10.667,10.667h192C488.085,341.333,512,317.397,512,288V117.333
			C512,87.936,488.085,64,458.667,64z"/>
    </g>
  </g>
  <g>
    <g>
      <path fill="#6c6c6c" d="M384,234.667c0-6.016,2.539-11.627,7.147-15.744c2.219-2.027,3.52-4.907,3.52-7.936c0-3.029-1.301-5.909-3.52-7.936
			C383.232,195.925,373.12,192,362.667,192C339.136,192,320,211.136,320,234.667c0,23.531,19.136,42.667,42.667,42.667
			c10.453,0,20.565-3.925,28.48-11.029c2.219-2.027,3.52-4.907,3.52-7.936c0-3.029-1.301-5.909-3.52-7.936
			C386.539,246.293,384,240.683,384,234.667z M368.064,255.275c-12.992,3.584-26.731-7.019-26.731-20.608
			c0-11.755,9.557-21.333,21.333-21.333c1.835,0,3.648,0.256,5.397,0.725c-3.499,6.272-5.397,13.355-5.397,20.608
			C362.667,241.92,364.565,249.003,368.064,255.275z"/>
    </g>
  </g>
  <g>
    <g>
      <path fill="#6c6c6c" d="M405.333,192c-23.531,0-42.667,19.136-42.667,42.667c0,23.531,19.136,42.667,42.667,42.667
			c23.531,0,42.667-19.136,42.667-42.667C448,211.136,428.864,192,405.333,192z M405.333,256C393.557,256,384,246.421,384,234.667
			c0-11.755,9.557-21.333,21.333-21.333s21.333,9.579,21.333,21.333C426.667,246.421,417.109,256,405.333,256z"/>
    </g>
  </g>
  <g>
    <g>
      <path fill="#6c6c6c" d="M202.667,128h-21.333c-5.888,0-10.667,4.779-10.667,10.667s4.779,10.667,10.667,10.667h21.333
			c5.888,0,10.667-4.779,10.667-10.667S208.555,128,202.667,128z"/>
    </g>
  </g>
  <g>
    <g>
      <path fill="#6c6c6c" d="M266.667,128h-21.333c-5.888,0-10.667,4.779-10.667,10.667s4.779,10.667,10.667,10.667h21.333
			c5.888,0,10.667-4.779,10.667-10.667S272.555,128,266.667,128z"/>
    </g>
  </g>
  <g>
    <g>
      <path fill="#6c6c6c" d="M330.667,128h-21.333c-5.888,0-10.667,4.779-10.667,10.667s4.779,10.667,10.667,10.667h21.333
			c5.888,0,10.667-4.779,10.667-10.667S336.555,128,330.667,128z"/>
    </g>
  </g>
  <g>
    <g>
      <path fill="#6c6c6c" d="M394.667,128h-21.333c-5.888,0-10.667,4.779-10.667,10.667s4.779,10.667,10.667,10.667h21.333
			c5.888,0,10.667-4.779,10.667-10.667S400.555,128,394.667,128z"/>
    </g>
  </g>
  <g>
    <g>
      <path fill="#6c6c6c" d="M288,192h-85.333c-5.888,0-10.667,4.779-10.667,10.667s4.779,10.667,10.667,10.667H288
			c5.888,0,10.667-4.779,10.667-10.667S293.888,192,288,192z"/>
    </g>
  </g>
  <g>
    <g>
      <path fill="#6c6c6c" d="M288,256h-21.333c-5.888,0-10.667,4.779-10.667,10.667s4.779,10.667,10.667,10.667H288
			c5.888,0,10.667-4.779,10.667-10.667S293.888,256,288,256z"/>
    </g>
  </g>
</svg>
