<?xml version="1.0" encoding="UTF-8" standalone="no"?>
<svg
   xmlns:dc="http://purl.org/dc/elements/1.1/"
   xmlns:cc="http://creativecommons.org/ns#"
   xmlns:rdf="http://www.w3.org/1999/02/22-rdf-syntax-ns#"
   xmlns:svg="http://www.w3.org/2000/svg"
   xmlns="http://www.w3.org/2000/svg"
   xmlns:sodipodi="http://sodipodi.sourceforge.net/DTD/sodipodi-0.dtd"
   xmlns:inkscape="http://www.inkscape.org/namespaces/inkscape"
   version="1.0"
   width="256pt"
   height="191pt"
   viewBox="0 0 256 191"
   preserveAspectRatio="xMidYMid meet"
   id="svg8169"
   sodipodi:docname="Logo-v0.2.svg"
   inkscape:version="0.92.3 (2405546, 2018-03-11)">
  <metadata
     id="metadata8175">
    <rdf:RDF>
      <cc:Work
         rdf:about="">
        <dc:format>image/svg+xml</dc:format>
        <dc:type
           rdf:resource="http://purl.org/dc/dcmitype/StillImage" />
        <dc:title></dc:title>
      </cc:Work>
    </rdf:RDF>
  </metadata>
  <defs
     id="defs8173">
    <inkscape:path-effect
       effect="spiro"
       id="path-effect9288"
       is_visible="true" />
    <inkscape:path-effect
       effect="spiro"
       id="path-effect9284"
       is_visible="true" />
    <inkscape:path-effect
       effect="spiro"
       id="path-effect9280"
       is_visible="true" />
    <inkscape:path-effect
       effect="spiro"
       id="path-effect9276"
       is_visible="true" />
  </defs>
  <sodipodi:namedview
     pagecolor="#ffffff"
     bordercolor="#666666"
     borderopacity="1"
     objecttolerance="10"
     gridtolerance="10"
     guidetolerance="10"
     inkscape:pageopacity="0"
     inkscape:pageshadow="2"
     inkscape:window-width="1920"
     inkscape:window-height="1027"
     id="namedview8171"
     showgrid="false"
     showguides="true"
     inkscape:guide-bbox="true"
     inkscape:zoom="0.42113875"
     inkscape:cx="-419.82241"
     inkscape:cy="509.92991"
     inkscape:window-x="-8"
     inkscape:window-y="-8"
     inkscape:window-maximized="1"
     inkscape:current-layer="svg8169" />
  <path
     style="fill:none;fill-opacity:1;stroke:#336688;stroke-width:2.70000005;stroke-linecap:butt;stroke-linejoin:round;stroke-miterlimit:4;stroke-dasharray:none;stroke-opacity:0.50196081"
     d="M 4.4941119,80.672306 V 142.20122 H 17.443747 v 30.22473 h 18.345314 v 15.11237 h 24.820133 v -15.11237 h 48.884856 l -4.42445,-13.92496 28.92086,-16.29977 v 45.3371 h 17.58992 l -2.69785,-15.11237 h 30.75539 l -2.69784,15.11237 h 15.32372 v -45.3371 l 30.25733,16.29977 -3.49475,13.92496 H 252.3093 V 12.458319 C 250.44319,1.5805143 243.85611,4.0827635 238.37611,3.4472632 H 206.66612 C 197.00415,2.9244147 192.16484,7.7140375 192.2638,12.338297 v 38.109275 l -55.5755,0.539728 -2.69784,29.685006 h -21.49344 c 0,0 -6.72636,12.255205 -14.653846,-3e-6 l -19.967801,3e-6 L 75.393358,50.9873 H 17.443747 l -0.107915,29.685006 z"
     id="path9044"
     inkscape:connector-curvature="0"
     sodipodi:nodetypes="ccccccccccccccccccccccccccccccccccc" />
  <path
     style="fill:none;fill-opacity:1;stroke:#336688;stroke-width:2.70000005;stroke-linecap:butt;stroke-linejoin:round;stroke-miterlimit:4;stroke-dasharray:8.10000031, 8.10000031000000043;stroke-dashoffset:0;stroke-opacity:0.50196081"
     d="M 77.875373,80.672306 H 17.443747 V 142.20122 H 252.3093"
     id="path9054"
     inkscape:connector-curvature="0" />
  <path
     style="fill:none;fill-opacity:1;stroke:#336688;stroke-width:2.70000005;stroke-linecap:butt;stroke-linejoin:round;stroke-miterlimit:4;stroke-dasharray:8.10000031, 8.10000031000000043;stroke-dashoffset:0;stroke-opacity:0.50196081"
     d="M 133.99046,80.672306 H 252.3093"
     id="path9056"
     inkscape:connector-curvature="0" />
  <path
     style="fill:none;fill-opacity:1;stroke:#336688;stroke-width:2.70000005;stroke-linecap:butt;stroke-linejoin:round;stroke-miterlimit:4;stroke-dasharray:8.10000031, 8.10000031000000043;stroke-dashoffset:0;stroke-opacity:0.50196081"
     d="M 133.99046,142.20122 V 80.672306"
     id="path9060"
     inkscape:connector-curvature="0" />
  <path
     style="fill:none;fill-opacity:1;stroke:#336688;stroke-width:2.70000005;stroke-linecap:butt;stroke-linejoin:round;stroke-miterlimit:4;stroke-dasharray:8.10000031, 8.10000031000000043;stroke-dashoffset:0;stroke-opacity:0.50196081"
     d="m 192.2638,20.74873 h 60.0455"
     id="path9066"
     inkscape:connector-curvature="0" />
  <path
     style="fill:none;stroke:#336688;stroke-width:2.70000005;stroke-linecap:butt;stroke-linejoin:miter;stroke-miterlimit:4;stroke-dasharray:none;stroke-dashoffset:0;stroke-opacity:0.50196081"
     d="m 77.875373,172.42595 c 0,-10.14222 0,-20.28445 0,-30.42667 0,-20.44233 10e-7,-40.88465 2e-6,-61.326977"
     id="path9274"
     inkscape:connector-curvature="0"
     inkscape:path-effect="#path-effect9276"
     inkscape:original-d="m 77.875373,172.42595 c -8.09e-4,-30.42586 8.1e-4,-20.28526 0,-30.42667 -8.09e-4,-10.14141 8.11e-4,-40.88547 2e-6,-61.326977" />
  <path
     style="fill:none;stroke:#336688;stroke-width:2.70000005;stroke-linecap:butt;stroke-linejoin:miter;stroke-miterlimit:4;stroke-dasharray:8.10000031, 8.10000031000000043;stroke-dashoffset:0;stroke-opacity:0.50196081"
     d="M 192.2638,142.20122 V 80.672306"
     id="path9278"
     inkscape:connector-curvature="0"
     inkscape:path-effect="#path-effect9280"
     inkscape:original-d="m 192.2638,142.20122 c 8.1e-4,-20.51044 8.1e-4,-41.02009 0,-61.528914" />
  <path
     style="fill:none;stroke:#336688;stroke-width:2.70000005;stroke-linecap:butt;stroke-linejoin:miter;stroke-miterlimit:4;stroke-dasharray:none;stroke-dashoffset:0;stroke-opacity:0.50196081"
     d="M 192.2638,50.447572 V 80.672306"
     id="path9282"
     inkscape:connector-curvature="0"
     inkscape:path-effect="#path-effect9284"
     inkscape:original-d="m 192.2638,50.447572 c 8.1e-4,10.074101 8.1e-4,20.149012 0,30.224734" />
  <g
     id="g9314"
     transform="matrix(1.0791362,0,0,1.0794547,-469.8139,186.79477)"
     style="stroke-width:0.92653042;stroke:#00000e;stroke-opacity:1">
    <path
       d="m 494.31588,-46.076566 h -21.04586 q -4.55679,0 -6.52985,-2.072923 -1.92608,-2.121131 -1.92608,-6.700846 v -53.124695 q 0,-4.67613 1.97306,-6.70084 2.02002,-2.07293 6.48287,-2.07293 h 22.31425 q 4.93262,0 8.54987,0.62671 3.61727,0.62668 6.48288,2.41037 2.44282,1.49443 4.32191,3.80839 1.87911,2.26576 2.86562,5.06179 0.98653,2.74783 0.98653,5.833113 0,10.605655 -10.33501,15.522823 13.57644,4.435092 13.57644,17.258294 0,5.929524 -2.95957,10.70207 -2.95957,4.724337 -7.98615,6.99009 -3.14748,1.349812 -7.23451,1.928302 -4.08703,0.530282 -9.5364,0.530282 z m -1.03351,-31.383098 h -14.516 v 20.63282 h 14.98578 q 14.14019,0 14.14019,-10.461032 0,-5.351035 -3.66424,-7.761412 -3.66423,-2.410376 -10.94573,-2.410376 z m -14.516,-28.538856 v 18.270654 h 12.77784 q 5.21449,0 8.03313,-1.012359 2.86561,-1.012357 4.36889,-3.856601 1.17444,-2.024716 1.17444,-4.531508 0,-5.351036 -3.71122,-7.086506 -3.71121,-1.78368 -11.32153,-1.78368 z"
       style="font-style:normal;font-variant:normal;font-weight:normal;font-stretch:normal;font-size:102.93817902px;line-height:1.25;font-family:'Arial Rounded MT Bold';-inkscape-font-specification:'Arial Rounded MT Bold, ';letter-spacing:0px;word-spacing:0px;fill:#ffa400;fill-opacity:1;stroke:#00000e;stroke-width:1.73724461;stroke-miterlimit:4;stroke-dasharray:none;stroke-opacity:1"
       id="path13108"
       inkscape:connector-curvature="0" />
    <path
       d="m 561.49538,-117.05485 q 9.73109,0 16.68795,4.37425 6.99956,4.32721 10.5847,12.37018 3.58512,7.99594 3.58512,18.813967 0,7.99594 -1.96328,14.5338 -1.96329,6.53785 -5.88988,11.33541 -3.92656,4.79756 -9.64571,7.33745 -5.71915,2.53988 -13.10281,2.53988 -7.34099,0 -13.14551,-2.58692 -5.8045,-2.63395 -9.68838,-7.38448 -3.88391,-4.75053 -5.88987,-11.42949 -1.9633,-6.67895 -1.9633,-14.43972 0,-7.9489 2.04866,-14.580819 2.09133,-6.631928 6.01789,-11.288378 3.9266,-4.65646 9.56037,-7.10228 5.63379,-2.49285 12.80405,-2.49285 z m 18.01104,35.464327 q 0,-7.57262 -2.21938,-13.122738 -2.21936,-5.550119 -6.35933,-8.372219 -4.0973,-2.86913 -9.43233,-2.86913 -3.79854,0 -7.04224,1.59919 -3.20101,1.55215 -5.54841,4.562387 -2.30473,3.010235 -3.67049,7.713728 -1.3231,4.656452 -1.3231,10.488782 0,5.87937 1.3231,10.6299 1.36576,4.75052 3.79852,7.90186 2.47546,3.10431 5.63379,4.65646 3.20101,1.55215 6.99954,1.55215 4.86555,0 8.92016,-2.68099 4.09731,-2.68099 6.4874,-8.27814 2.43277,-5.59716 2.43277,-13.78124 z"
       style="font-style:normal;font-variant:normal;font-weight:normal;font-stretch:normal;font-size:102.93817902px;line-height:1.25;font-family:'Arial Rounded MT Bold';-inkscape-font-specification:'Arial Rounded MT Bold, ';letter-spacing:0px;word-spacing:0px;fill:#ffa400;fill-opacity:1;stroke:#00000e;stroke-width:1.73724461;stroke-miterlimit:4;stroke-dasharray:none;stroke-opacity:1"
       id="path13110"
       inkscape:connector-curvature="0" />
    <path
       d="m 601.06189,-60.751611 16.76705,-22.55189 -14.10885,-20.056579 q -1.99365,-2.91903 -3.01604,-4.9906 -0.97126,-2.11865 -0.97126,-4.04898 0,-1.97741 1.89141,-3.53108 1.94252,-1.60077 4.70295,-1.60077 3.16938,0 4.90743,1.742 1.78917,1.69493 4.90741,6.35596 l 11.24622,16.760899 12.01297,-16.760899 q 1.48245,-2.11865 2.50484,-3.62525 1.0735,-1.50659 2.04476,-2.4953 0.97125,-0.98871 2.147,-1.45952 1.22685,-0.51789 2.81155,-0.51789 2.86266,0 4.65183,1.60077 1.84028,1.55367 1.84028,3.7194 0,3.15444 -3.93616,8.56878 l -14.77342,20.339059 15.89803,22.55189 q 2.14702,2.96611 3.11826,4.94352 0.97127,1.93033 0.97127,3.67233 0,1.64784 -0.86903,3.0132 -0.86902,1.36535 -2.45371,2.16573 -1.58469,0.80038 -3.57834,0.80038 -2.14699,0 -3.62944,-0.84746 -1.48245,-0.80038 -2.4026,-2.02449 -0.92014,-1.22412 -3.42499,-4.7552 l -13.18871,-19.11496 -14.00661,19.67993 q -1.63582,2.35406 -2.35148,3.29569 -0.66455,0.94162 -1.63581,1.83616 -0.97127,0.89454 -2.30036,1.41244 -1.32909,0.51789 -3.11825,0.51789 -2.76043,0 -4.60072,-1.55367 -1.78917,-1.55369 -1.78917,-4.5198 0,-3.48401 3.73169,-8.52169 z"
       style="font-style:normal;font-variant:normal;font-weight:normal;font-stretch:normal;font-size:102.93817902px;line-height:1.25;font-family:'Arial Rounded MT Bold';-inkscape-font-specification:'Arial Rounded MT Bold, ';letter-spacing:0px;word-spacing:0px;fill:#ffa400;fill-opacity:1;stroke:#00000e;stroke-width:1.73724461;stroke-miterlimit:4;stroke-dasharray:none;stroke-opacity:1"
       id="path13112"
       inkscape:connector-curvature="0" />
  </g>
</svg>
