<?xml version="1.0" encoding="UTF-8" standalone="no"?>
<svg xmlns:dc="http://purl.org/dc/elements/1.1/" 
  xmlns:cc="http://creativecommons.org/ns#" 
  xmlns:rdf="http://www.w3.org/1999/02/22-rdf-syntax-ns#" 
  xmlns:svg="http://www.w3.org/2000/svg" 
  xmlns="http://www.w3.org/2000/svg" id="svg3898" version="1.1" width="174.01172pt" height="253.88086pt">
  <metadata id="metadata3904">
    <rdf:RDF>
      <cc:Work rdf:about="">
        <dc:format>image/svg+xml</dc:format>
        <dc:type rdf:resource="http://purl.org/dc/dcmitype/StillImage" />
        <dc:title></dc:title>
      </cc:Work>
    </rdf:RDF>
  </metadata>
  <defs id="defs3902" />
  <path style="fill:#ffa400" id="path3888" d="m 116.67188,266.17578 c -0.90235,-0.19531 -1.82813,-0.23047 -2.74219,-0.0937 -9.16016,-1.06641 -16.070312,-8.81641 -16.085942,-18.03516 0,-4.41796 -3.58203,-8 -8,-8 -4.41797,0 -8,3.58204 -8,8 0.0234,15.39454 10.32031,28.87891 25.164062,32.95313 v 8 c 0,4.41797 3.58204,8 8,8 4.41797,0 8,-3.58203 8,-8 v -7.51563 c 17.13282,-3.58593 28.77735,-19.54296 26.97657,-36.95312 -1.80469,-17.41016 -16.47266,-30.64063 -33.97657,-30.64453 -10.03125,0 -18.164062,-8.13281 -18.164062,-18.16406 0,-10.03125 8.132812,-18.16407 18.164062,-18.16407 10.03125,0 18.16407,8.13282 18.16407,18.16407 0,4.41796 3.58203,8 8,8 4.41797,0 8,-3.58204 8,-8 -0.0234,-16.16407 -11.34766,-30.10547 -27.16407,-33.44141 V 155 c 0,-4.41797 -3.58203,-8 -8,-8 -4.41796,0 -8,3.58203 -8,8 v 7.76953 c -16.507812,4.50781 -27.132812,20.53516 -24.859372,37.49609 2.27344,16.96094 16.74609,29.6211 33.859372,29.61719 9.89844,0 17.97266,7.92578 18.15235,17.82031 0.18359,9.89454 -7.59766,18.11329 -17.48828,18.47266 z m 0,0" />
  <path style="fill:#6c6c6c" id="path3890" d="m -2e-6,222.5 c 0,64.07031 51.9375,116.00781 116.007812,116.00781 64.07032,0 116.00782,-51.9375 116.00782,-116.00781 0,-64.07031 -51.9375,-116.00781 -116.00782,-116.00781 C 51.968748,106.5625 0.074218,158.46094 -2e-6,222.5 Z M 116.00781,122.49219 c 55.23438,0 100.00782,44.77343 100.00782,100.00781 0,55.23437 -44.77344,100.00781 -100.00782,100.00781 -55.234372,0 -100.007812,-44.77344 -100.007812,-100.00781 0.0625,-55.20703 44.80078,-99.94531 100.007812,-100.00781 z m 0,0" />
  <path style="fill:#ffa400" id="path3892" d="M 124.00781,84 V 8 c 0,-4.417969 -3.58203,-8 -8,-8 -4.41796,0 -8,3.582031 -8,8 v 76 c 0,4.417969 3.58204,8 8,8 4.41797,0 8,-3.582031 8,-8 z m 0,0" />
  <path style="fill:#ffa400" id="path3894" d="M 184.00781,84 V 48 c 0,-4.417969 -3.58203,-8 -8,-8 -4.41796,0 -8,3.582031 -8,8 v 36 c 0,4.417969 3.58204,8 8,8 4.41797,0 8,-3.582031 8,-8 z m 0,0" />
  <path style="fill:#ffa400" id="path3896" d="M 64.007808,84 V 48 c 0,-4.417969 -3.58203,-8 -8,-8 -4.41796,0 -8,3.582031 -8,8 v 36 c 0,4.417969 3.58204,8 8,8 4.41797,0 8,-3.582031 8,-8 z m 0,0" />
</svg>
