<?xml version="1.0" encoding="iso-8859-1"?>
<svg version="1.1" id="Capa_1" 
  xmlns="http://www.w3.org/2000/svg" 
  xmlns:xlink="http://www.w3.org/1999/xlink" x="0px" y="0px" viewBox="0 0 512 512" style="enable-background:new 0 0 512 512;" xml:space="preserve">
  <g>
    <g>
      <path fill="#6c6c6c" d="M480,80H32C14.368,80,0,94.368,0,112v288c0,17.632,14.368,32,32,32h448c17.632,0,32-14.368,32-32V112
			C512,94.368,497.632,80,480,80z M32,112h448v64H32V112z M480,416v-16H32V208h448v192c0,0,0,0,0.032,0L480,416z"/>
    </g>
  </g>
  <g>
    <g>
      <path fill="#ffa400" d="M176,304H80c-8.832,0-16,7.168-16,16c0,8.832,7.168,16,16,16h96c8.832,0,16-7.168,16-16C192,311.168,184.832,304,176,304z
			"/>
    </g>
  </g>
  <g>
    <g>
      <path fill="#ffa400" d="M384,240c-11.68,0-22.496,3.36-31.936,8.864C342.432,243.168,331.424,240,320,240c-35.296,0-64,28.704-64,64
			c0,35.296,28.704,64,64,64c11.424,0,22.432-3.168,32.064-8.864C361.504,364.64,372.32,368,384,368c35.296,0,64-28.704,64-64
			C448,268.704,419.296,240,384,240z M328.096,334.496C325.44,335.2,322.816,336,320,336c-17.632,0-32-14.368-32-32
			c0-17.632,14.368-32,32-32c2.816,0,5.44,0.8,8.096,1.504C323.104,282.624,320,292.896,320,304S323.104,325.376,328.096,334.496z
			 M384,336c-17.632,0-32-14.368-32-32c0-17.632,14.368-32,32-32c17.632,0,32,14.368,32,32C416,321.632,401.632,336,384,336z"/>
    </g>
  </g>
</svg>
